<svg xmlns="http://www.w3.org/2000/svg" xmlns:xlink="http://www.w3.org/1999/xlink" width="40" zoomAndPan="magnify" viewBox="0 0 30 30.000001" height="40" preserveAspectRatio="xMidYMid meet" version="1.0"><defs><clipPath id="e24ca70949"><path d="M 1.933594 18.679688 L 28.0625 18.679688 L 28.0625 28.199219 L 1.933594 28.199219 Z M 1.933594 18.679688 " clip-rule="nonzero"/></clipPath><clipPath id="0060d383b6"><path d="M 6 0.617188 L 24 0.617188 L 24 18 L 6 18 Z M 6 0.617188 " clip-rule="nonzero"/></clipPath></defs><g clip-path="url(#e24ca70949)"><path fill="#010020" d="M 26.917969 20.457031 C 25.917969 22.917969 21.59375 25.324219 18 26.519531 C 15.835938 27.238281 13.515625 27.230469 11.292969 26.496094 C 9.285156 25.832031 7.050781 26.183594 5.925781 26.441406 L 5.925781 21.476562 C 6.039062 21.371094 6.175781 21.246094 6.269531 21.175781 C 8.296875 19.601562 11.082031 19.355469 13.359375 20.554688 C 14.617188 21.214844 15.929688 21.75 17.085938 22.21875 C 17.886719 22.542969 18.640625 22.851562 19.238281 23.144531 C 19.601562 23.324219 19.597656 23.671875 19.589844 23.773438 C 19.578125 23.875 19.515625 24.214844 19.128906 24.324219 C 17.078125 24.894531 14.109375 23.648438 12.523438 22.851562 C 11.90625 22.542969 11.253906 22.371094 10.578125 22.332031 C 10.128906 22.308594 9.707031 22.34375 9.320312 22.445312 C 9.023438 22.523438 8.847656 22.828125 8.925781 23.125 C 9.003906 23.421875 9.308594 23.597656 9.605469 23.519531 C 9.875 23.449219 10.183594 23.421875 10.515625 23.441406 C 11.039062 23.46875 11.546875 23.605469 12.027344 23.847656 C 13.714844 24.691406 15.964844 25.578125 17.96875 25.578125 C 18.476562 25.578125 18.964844 25.523438 19.425781 25.394531 C 20.128906 25.199219 20.625 24.605469 20.695312 23.878906 C 20.710938 23.695312 20.699219 23.511719 20.664062 23.339844 C 21.714844 22.59375 24.945312 20.351562 26.394531 19.894531 C 26.632812 19.816406 26.792969 19.964844 26.839844 20.011719 C 26.894531 20.070312 27.011719 20.230469 26.917969 20.457031 Z M 4.816406 27.164062 C 4.816406 27.238281 4.753906 27.300781 4.675781 27.300781 L 3.183594 27.300781 C 3.109375 27.300781 3.046875 27.238281 3.046875 27.164062 L 3.046875 20.605469 C 3.046875 20.527344 3.109375 20.46875 3.183594 20.46875 L 4.675781 20.46875 C 4.753906 20.46875 4.816406 20.527344 4.816406 20.605469 Z M 27.652344 19.257812 C 27.246094 18.816406 26.632812 18.652344 26.058594 18.835938 C 24.476562 19.335938 21.246094 21.566406 20.089844 22.386719 C 19.980469 22.292969 19.859375 22.210938 19.726562 22.148438 C 19.097656 21.835938 18.324219 21.523438 17.503906 21.1875 C 16.371094 20.730469 15.085938 20.207031 13.875 19.570312 C 11.300781 18.21875 8.175781 18.441406 5.828125 20.121094 C 5.636719 19.671875 5.195312 19.355469 4.675781 19.355469 L 3.183594 19.355469 C 2.496094 19.355469 1.933594 19.917969 1.933594 20.605469 L 1.933594 27.164062 C 1.933594 27.851562 2.496094 28.410156 3.183594 28.410156 L 4.675781 28.410156 C 5.210938 28.410156 5.664062 28.078125 5.84375 27.605469 C 6.664062 27.394531 8.980469 26.902344 10.945312 27.550781 C 12.183594 27.960938 13.445312 28.164062 14.703125 28.164062 C 15.9375 28.164062 17.164062 27.96875 18.351562 27.574219 C 22.308594 26.257812 26.808594 23.679688 27.949219 20.875 C 28.175781 20.316406 28.0625 19.699219 27.652344 19.257812 " fill-opacity="1" fill-rule="nonzero"/></g><g clip-path="url(#0060d383b6)"><path fill="#010020" d="M 8.015625 6.480469 C 8.117188 6.1875 8.234375 5.90625 8.367188 5.628906 C 9.316406 6.042969 10.453125 5.855469 11.214844 5.09375 C 11.980469 4.332031 12.171875 3.195312 11.753906 2.246094 C 12.03125 2.113281 12.316406 1.996094 12.605469 1.894531 C 12.980469 2.859375 13.921875 3.527344 15 3.527344 C 16.078125 3.527344 17.015625 2.859375 17.394531 1.894531 C 17.683594 1.996094 17.96875 2.113281 18.246094 2.246094 C 17.828125 3.195312 18.019531 4.332031 18.78125 5.09375 C 19.546875 5.855469 20.683594 6.042969 21.628906 5.628906 C 21.765625 5.90625 21.882812 6.1875 21.984375 6.480469 C 21.019531 6.855469 20.347656 7.792969 20.347656 8.871094 C 20.347656 9.949219 21.019531 10.886719 21.984375 11.261719 C 21.882812 11.550781 21.765625 11.835938 21.628906 12.113281 C 20.683594 11.695312 19.546875 11.886719 18.78125 12.648438 C 18.019531 13.410156 17.828125 14.546875 18.246094 15.492188 C 17.96875 15.628906 17.683594 15.746094 17.394531 15.84375 C 17.015625 14.882812 16.078125 14.210938 15 14.210938 C 13.921875 14.210938 12.980469 14.882812 12.605469 15.84375 C 12.316406 15.746094 12.03125 15.628906 11.753906 15.492188 C 12.171875 14.546875 11.980469 13.410156 11.214844 12.648438 C 10.453125 11.886719 9.316406 11.695312 8.367188 12.113281 C 8.234375 11.835938 8.117188 11.550781 8.015625 11.261719 C 8.980469 10.886719 9.648438 9.949219 9.648438 8.871094 C 9.648438 7.792969 8.980469 6.855469 8.015625 6.480469 Z M 7.253906 10.316406 C 7.09375 10.335938 6.949219 10.421875 6.859375 10.554688 C 6.769531 10.6875 6.742188 10.851562 6.78125 11.007812 C 6.976562 11.765625 7.277344 12.492188 7.675781 13.164062 C 7.757812 13.304688 7.894531 13.398438 8.050781 13.429688 C 8.210938 13.457031 8.371094 13.417969 8.5 13.320312 C 9.078125 12.863281 9.910156 12.910156 10.433594 13.433594 C 10.953125 13.957031 11.003906 14.785156 10.546875 15.363281 C 10.445312 15.488281 10.40625 15.652344 10.4375 15.808594 C 10.464844 15.96875 10.5625 16.105469 10.699219 16.1875 C 11.375 16.582031 12.101562 16.882812 12.859375 17.078125 C 13.015625 17.121094 13.179688 17.089844 13.3125 17 C 13.445312 16.910156 13.53125 16.765625 13.550781 16.605469 C 13.636719 15.875 14.261719 15.324219 15 15.324219 C 15.738281 15.324219 16.359375 15.875 16.445312 16.605469 C 16.464844 16.765625 16.550781 16.910156 16.683594 17 C 16.777344 17.0625 16.886719 17.097656 17 17.097656 C 17.046875 17.097656 17.09375 17.09375 17.136719 17.078125 C 17.898438 16.882812 18.625 16.582031 19.296875 16.1875 C 19.4375 16.105469 19.535156 15.96875 19.5625 15.808594 C 19.59375 15.652344 19.550781 15.488281 19.453125 15.363281 C 18.996094 14.785156 19.042969 13.957031 19.566406 13.433594 C 20.089844 12.910156 20.921875 12.863281 21.5 13.320312 C 21.625 13.417969 21.789062 13.457031 21.945312 13.429688 C 22.105469 13.398438 22.242188 13.304688 22.324219 13.164062 C 22.71875 12.492188 23.023438 11.765625 23.21875 11.007812 C 23.257812 10.851562 23.230469 10.6875 23.136719 10.554688 C 23.046875 10.421875 22.902344 10.335938 22.746094 10.316406 C 22.011719 10.230469 21.460938 9.609375 21.460938 8.871094 C 21.460938 8.132812 22.011719 7.511719 22.746094 7.425781 C 22.90625 7.40625 23.046875 7.320312 23.136719 7.1875 C 23.230469 7.054688 23.257812 6.890625 23.21875 6.734375 C 23.023438 5.976562 22.71875 5.25 22.324219 4.574219 C 22.242188 4.4375 22.105469 4.339844 21.945312 4.3125 C 21.789062 4.28125 21.625 4.324219 21.5 4.421875 C 20.921875 4.878906 20.089844 4.828125 19.566406 4.308594 C 19.042969 3.785156 18.996094 2.957031 19.453125 2.378906 C 19.550781 2.25 19.59375 2.089844 19.5625 1.929688 C 19.535156 1.773438 19.4375 1.636719 19.296875 1.554688 C 18.625 1.15625 17.894531 0.855469 17.136719 0.660156 C 16.980469 0.621094 16.816406 0.648438 16.683594 0.738281 C 16.550781 0.832031 16.464844 0.972656 16.449219 1.132812 C 16.359375 1.863281 15.738281 2.417969 15 2.417969 C 14.261719 2.417969 13.636719 1.863281 13.550781 1.132812 C 13.53125 0.972656 13.445312 0.832031 13.3125 0.738281 C 13.183594 0.648438 13.015625 0.621094 12.859375 0.660156 C 12.101562 0.855469 11.375 1.15625 10.699219 1.554688 C 10.5625 1.636719 10.464844 1.773438 10.4375 1.929688 C 10.40625 2.089844 10.445312 2.25 10.546875 2.378906 C 11.003906 2.957031 10.953125 3.785156 10.433594 4.308594 C 9.910156 4.828125 9.078125 4.878906 8.5 4.421875 C 8.371094 4.324219 8.210938 4.28125 8.050781 4.3125 C 7.894531 4.339844 7.757812 4.4375 7.675781 4.574219 C 7.277344 5.25 6.976562 5.976562 6.78125 6.734375 C 6.742188 6.890625 6.769531 7.054688 6.859375 7.1875 C 6.949219 7.320312 7.09375 7.40625 7.253906 7.425781 C 7.988281 7.511719 8.539062 8.132812 8.539062 8.871094 C 8.539062 9.609375 7.988281 10.230469 7.253906 10.316406 " fill-opacity="1" fill-rule="nonzero"/></g><path fill="#010020" d="M 15 7.128906 C 15.960938 7.128906 16.742188 7.910156 16.742188 8.871094 C 16.742188 9.832031 15.960938 10.613281 15 10.613281 C 14.039062 10.613281 13.253906 9.832031 13.253906 8.871094 C 13.253906 7.910156 14.039062 7.128906 15 7.128906 Z M 15 11.722656 C 16.574219 11.722656 17.855469 10.441406 17.855469 8.871094 C 17.855469 7.296875 16.574219 6.015625 15 6.015625 C 13.425781 6.015625 12.144531 7.296875 12.144531 8.871094 C 12.144531 10.441406 13.425781 11.722656 15 11.722656 " fill-opacity="1" fill-rule="nonzero"/></svg>