<svg xmlns="http://www.w3.org/2000/svg" xmlns:xlink="http://www.w3.org/1999/xlink" width="40" zoomAndPan="magnify" viewBox="0 0 30 30.000001" height="40" preserveAspectRatio="xMidYMid meet" version="1.0"><defs><clipPath id="50306015c3"><path d="M 1.113281 2.902344 L 28.695312 2.902344 L 28.695312 26.128906 L 1.113281 26.128906 Z M 1.113281 2.902344 " clip-rule="nonzero"/></clipPath></defs><g clip-path="url(#50306015c3)"><path fill="#010020" d="M 28.417969 4.476562 L 26.34375 4.476562 L 26.34375 3.351562 C 26.34375 3.105469 26.144531 2.90625 25.898438 2.90625 C 20.75 2.90625 19.097656 3.351562 15.800781 4.246094 C 15.546875 4.3125 15.277344 4.386719 15 4.460938 C 14.722656 4.386719 14.453125 4.3125 14.199219 4.246094 C 10.902344 3.351562 9.25 2.90625 4.101562 2.90625 C 3.855469 2.90625 3.65625 3.105469 3.65625 3.351562 L 3.65625 4.476562 L 1.582031 4.476562 C 1.332031 4.476562 1.132812 4.675781 1.132812 4.925781 L 1.132812 24.230469 C 1.132812 24.476562 1.332031 24.675781 1.582031 24.675781 L 12.601562 24.675781 L 12.601562 24.6875 C 12.601562 25.480469 13.246094 26.128906 14.042969 26.128906 L 15.976562 26.128906 C 16.773438 26.128906 17.421875 25.480469 17.421875 24.6875 L 17.421875 24.675781 L 28.417969 24.675781 C 28.664062 24.675781 28.867188 24.476562 28.867188 24.230469 L 28.867188 4.925781 C 28.867188 4.675781 28.664062 4.476562 28.417969 4.476562 Z M 16.035156 5.109375 C 19.253906 4.238281 20.773438 3.824219 25.449219 3.800781 L 25.449219 21.585938 C 21.097656 21.621094 17.8125 22.203125 15.445312 23.351562 L 15.445312 5.265625 C 15.648438 5.210938 15.847656 5.160156 16.035156 5.109375 Z M 4.550781 3.800781 C 9.226562 3.824219 10.746094 4.238281 13.964844 5.109375 C 14.152344 5.160156 14.351562 5.210938 14.550781 5.265625 L 14.550781 23.351562 C 12.1875 22.203125 8.902344 21.621094 4.550781 21.585938 Z M 27.972656 23.78125 L 16.972656 23.78125 C 16.726562 23.78125 16.527344 23.984375 16.527344 24.230469 L 16.527344 24.6875 C 16.527344 24.988281 16.28125 25.234375 15.976562 25.234375 L 14.042969 25.234375 C 13.742188 25.234375 13.496094 24.988281 13.496094 24.6875 L 13.496094 24.230469 C 13.496094 23.984375 13.296875 23.78125 13.046875 23.78125 L 2.027344 23.78125 L 2.027344 5.371094 L 3.65625 5.371094 L 3.65625 22.03125 C 3.65625 22.277344 3.855469 22.476562 4.101562 22.476562 C 8.953125 22.476562 12.441406 23.132812 14.777344 24.480469 C 14.84375 24.519531 14.921875 24.539062 15 24.539062 C 15.078125 24.539062 15.152344 24.519531 15.222656 24.480469 C 17.554688 23.132812 21.046875 22.476562 25.898438 22.476562 C 26.144531 22.476562 26.34375 22.277344 26.34375 22.03125 L 26.34375 5.371094 L 27.972656 5.371094 Z M 13.75 11.039062 L 9.773438 8.742188 C 9.636719 8.664062 9.464844 8.664062 9.328125 8.742188 L 5.351562 11.039062 C 5.214844 11.121094 5.128906 11.265625 5.128906 11.425781 L 5.128906 16.019531 C 5.128906 16.175781 5.214844 16.324219 5.351562 16.40625 L 9.328125 18.699219 C 9.398438 18.742188 9.472656 18.761719 9.550781 18.761719 C 9.628906 18.761719 9.707031 18.742188 9.773438 18.699219 L 13.75 16.40625 C 13.890625 16.324219 13.972656 16.175781 13.972656 16.019531 L 13.972656 11.425781 C 13.972656 11.265625 13.890625 11.121094 13.75 11.039062 Z M 9.550781 13.207031 L 9.035156 12.90625 L 12.117188 11.128906 L 12.632812 11.425781 Z M 7.882812 12.242188 L 10.960938 10.460938 L 11.222656 10.613281 L 8.140625 12.390625 Z M 7.433594 13.015625 L 7.691406 13.164062 L 7.691406 13.941406 L 7.433594 13.792969 Z M 9.550781 9.648438 L 10.066406 9.945312 L 6.988281 11.726562 L 6.46875 11.425781 Z M 6.023438 12.203125 L 6.539062 12.5 L 6.539062 14.050781 C 6.539062 14.210938 6.625 14.355469 6.761719 14.4375 L 7.917969 15.101562 C 7.984375 15.144531 8.0625 15.164062 8.140625 15.164062 C 8.21875 15.164062 8.292969 15.144531 8.363281 15.101562 C 8.5 15.023438 8.585938 14.875 8.585938 14.714844 L 8.585938 13.683594 L 9.105469 13.980469 L 9.105469 17.539062 L 6.023438 15.757812 Z M 10 17.539062 L 10 13.980469 L 13.078125 12.203125 L 13.078125 15.757812 Z M 20.1875 10.464844 C 20.1875 10.21875 20.386719 10.019531 20.632812 10.019531 L 24.03125 10.019531 C 24.277344 10.019531 24.480469 10.21875 24.480469 10.464844 C 24.480469 10.714844 24.277344 10.914062 24.03125 10.914062 L 20.632812 10.914062 C 20.386719 10.914062 20.1875 10.714844 20.1875 10.464844 Z M 20.1875 9.019531 C 20.1875 8.773438 20.386719 8.574219 20.632812 8.574219 L 24.03125 8.574219 C 24.277344 8.574219 24.480469 8.773438 24.480469 9.019531 C 24.480469 9.265625 24.277344 9.46875 24.03125 9.46875 L 20.632812 9.46875 C 20.386719 9.46875 20.1875 9.265625 20.1875 9.019531 Z M 20.1875 13 C 20.1875 12.753906 20.386719 12.550781 20.632812 12.550781 L 24.03125 12.550781 C 24.277344 12.550781 24.480469 12.753906 24.480469 13 C 24.480469 13.246094 24.277344 13.445312 24.03125 13.445312 L 20.632812 13.445312 C 20.386719 13.445312 20.1875 13.246094 20.1875 13 Z M 20.1875 14.445312 C 20.1875 14.199219 20.386719 14 20.632812 14 L 24.03125 14 C 24.277344 14 24.480469 14.199219 24.480469 14.445312 C 24.480469 14.691406 24.277344 14.894531 24.03125 14.894531 L 20.632812 14.894531 C 20.386719 14.894531 20.1875 14.691406 20.1875 14.445312 Z M 20.1875 18.425781 C 20.1875 18.175781 20.386719 17.976562 20.632812 17.976562 L 24.03125 17.976562 C 24.277344 17.976562 24.480469 18.175781 24.480469 18.425781 C 24.480469 18.671875 24.277344 18.871094 24.03125 18.871094 L 20.632812 18.871094 C 20.386719 18.871094 20.1875 18.671875 20.1875 18.425781 Z M 20.1875 16.980469 C 20.1875 16.730469 20.386719 16.53125 20.632812 16.53125 L 24.03125 16.53125 C 24.277344 16.53125 24.480469 16.730469 24.480469 16.980469 C 24.480469 17.226562 24.277344 17.425781 24.03125 17.425781 L 20.632812 17.425781 C 20.386719 17.425781 20.1875 17.226562 20.1875 16.980469 Z M 17.269531 11.203125 L 18.488281 11.203125 C 18.957031 11.203125 19.335938 10.820312 19.335938 10.351562 L 19.335938 9.132812 C 19.335938 8.664062 18.957031 8.285156 18.488281 8.285156 L 17.269531 8.285156 C 16.800781 8.285156 16.417969 8.664062 16.417969 9.132812 L 16.417969 10.351562 C 16.417969 10.820312 16.800781 11.203125 17.269531 11.203125 Z M 17.3125 9.179688 L 18.441406 9.179688 L 18.441406 10.308594 L 17.3125 10.308594 Z M 17.269531 15.183594 L 18.488281 15.183594 C 18.957031 15.183594 19.335938 14.800781 19.335938 14.332031 L 19.335938 13.113281 C 19.335938 12.644531 18.957031 12.261719 18.488281 12.261719 L 17.269531 12.261719 C 16.800781 12.261719 16.417969 12.644531 16.417969 13.113281 L 16.417969 14.332031 C 16.417969 14.800781 16.800781 15.183594 17.269531 15.183594 Z M 17.3125 13.15625 L 18.441406 13.15625 L 18.441406 14.289062 L 17.3125 14.289062 Z M 17.269531 19.160156 L 18.488281 19.160156 C 18.957031 19.160156 19.335938 18.78125 19.335938 18.3125 L 19.335938 17.09375 C 19.335938 16.625 18.957031 16.242188 18.488281 16.242188 L 17.269531 16.242188 C 16.800781 16.242188 16.417969 16.625 16.417969 17.09375 L 16.417969 18.3125 C 16.417969 18.78125 16.800781 19.160156 17.269531 19.160156 Z M 17.3125 17.136719 L 18.441406 17.136719 L 18.441406 18.265625 L 17.3125 18.265625 Z M 17.3125 17.136719 " fill-opacity="1" fill-rule="nonzero"/></g></svg>