<svg xmlns="http://www.w3.org/2000/svg" xmlns:xlink="http://www.w3.org/1999/xlink" width="40" zoomAndPan="magnify" viewBox="0 0 30 30.000001" height="40" preserveAspectRatio="xMidYMid meet" version="1.0"><defs><clipPath id="13e0240175"><path d="M 12 12 L 18 12 L 18 28.652344 L 12 28.652344 Z M 12 12 " clip-rule="nonzero"/></clipPath><clipPath id="d7b80e975f"><path d="M 3.734375 0.347656 L 14 0.347656 L 14 12 L 3.734375 12 Z M 3.734375 0.347656 " clip-rule="nonzero"/></clipPath><clipPath id="e49f7b4120"><path d="M 16 0.347656 L 26.234375 0.347656 L 26.234375 12 L 16 12 Z M 16 0.347656 " clip-rule="nonzero"/></clipPath><clipPath id="2a23bc63a8"><path d="M 6 0.347656 L 24 0.347656 L 24 2 L 6 2 Z M 6 0.347656 " clip-rule="nonzero"/></clipPath></defs><g clip-path="url(#13e0240175)"><path fill="#010020" d="M 17.128906 26.085938 L 15.023438 28.617188 L 15.007812 28.601562 L 14.992188 28.617188 L 12.882812 26.085938 L 13.953125 12.671875 L 16.0625 12.671875 L 17.128906 26.085938 " fill-opacity="1" fill-rule="nonzero"/></g><g clip-path="url(#d7b80e975f)"><path fill="#010020" d="M 3.808594 2.304688 L 5.226562 0.535156 C 5.304688 0.433594 5.449219 0.417969 5.550781 0.5 L 13.863281 6.894531 C 13.960938 6.976562 13.976562 7.121094 13.898438 7.21875 L 10.445312 11.535156 C 10.347656 11.660156 10.152344 11.648438 10.070312 11.511719 L 3.792969 2.570312 C 3.742188 2.488281 3.746094 2.382812 3.808594 2.304688 " fill-opacity="1" fill-rule="nonzero"/></g><g clip-path="url(#e49f7b4120)"><path fill="#010020" d="M 26.207031 2.304688 L 24.789062 0.535156 C 24.710938 0.433594 24.566406 0.417969 24.464844 0.5 L 16.152344 6.894531 C 16.054688 6.976562 16.039062 7.121094 16.117188 7.21875 L 19.570312 11.535156 C 19.667969 11.660156 19.863281 11.648438 19.945312 11.511719 L 26.222656 2.570312 C 26.273438 2.488281 26.269531 2.382812 26.207031 2.304688 " fill-opacity="1" fill-rule="nonzero"/></g><g clip-path="url(#2a23bc63a8)"><path fill="#010020" d="M 23.4375 0.648438 L 21.714844 1.972656 L 8.300781 1.972656 L 6.578125 0.648438 L 23.4375 0.648438 " fill-opacity="1" fill-rule="nonzero"/></g><path fill="#010020" d="M 13.34375 12.179688 C 13.410156 12.277344 13.617188 12.351562 13.765625 12.351562 C 14.152344 12.355469 15.859375 12.355469 16.25 12.351562 C 16.394531 12.351562 16.605469 12.277344 16.671875 12.179688 C 17.027344 11.628906 17.390625 11.078125 17.675781 10.496094 C 18.339844 9.117188 11.671875 9.117188 12.339844 10.496094 C 12.621094 11.078125 12.984375 11.628906 13.34375 12.179688 " fill-opacity="1" fill-rule="nonzero"/></svg>