<svg xmlns="http://www.w3.org/2000/svg" xmlns:xlink="http://www.w3.org/1999/xlink" width="40" zoomAndPan="magnify" viewBox="0 0 30 30.000001" height="40" preserveAspectRatio="xMidYMid meet" version="1.0"><defs><clipPath id="daecb39d2a"><path d="M 1.011719 4.6875 L 29 4.6875 L 29 24.285156 L 1.011719 24.285156 Z M 1.011719 4.6875 " clip-rule="nonzero"/></clipPath></defs><g clip-path="url(#daecb39d2a)"><path fill="#010020" d="M 2 17.785156 L 2 5.886719 C 2 5.226562 2.535156 4.691406 3.195312 4.691406 L 15.085938 4.691406 C 15.75 4.691406 16.285156 5.226562 16.285156 5.886719 L 16.285156 17.785156 C 16.285156 18.007812 16.105469 18.183594 15.886719 18.183594 L 2.398438 18.183594 C 2.175781 18.183594 2 18.007812 2 17.785156 Z M 11.601562 21.863281 C 11.601562 23.234375 10.488281 24.34375 9.117188 24.34375 C 7.746094 24.34375 6.636719 23.234375 6.636719 21.863281 C 6.636719 20.492188 7.746094 19.378906 9.117188 19.378906 C 10.488281 19.378906 11.601562 20.492188 11.601562 21.863281 Z M 10.359375 21.863281 C 10.359375 21.175781 9.804688 20.621094 9.117188 20.621094 C 8.433594 20.621094 7.878906 21.175781 7.878906 21.863281 C 7.878906 22.546875 8.433594 23.105469 9.117188 23.105469 C 9.804688 23.105469 10.359375 22.546875 10.359375 21.863281 Z M 6.980469 19.378906 L 1.417969 19.378906 C 1.195312 19.378906 1.015625 19.558594 1.015625 19.777344 L 1.015625 20.988281 C 1.015625 21.210938 1.195312 21.386719 1.417969 21.386719 L 5.875 21.386719 C 5.992188 20.589844 6.394531 19.882812 6.980469 19.378906 Z M 24.59375 21.863281 C 24.59375 23.234375 23.480469 24.34375 22.109375 24.34375 C 20.738281 24.34375 19.625 23.234375 19.625 21.863281 C 19.625 20.492188 20.738281 19.378906 22.109375 19.378906 C 23.480469 19.378906 24.59375 20.492188 24.59375 21.863281 Z M 23.351562 21.863281 C 23.351562 21.175781 22.796875 20.621094 22.109375 20.621094 C 21.425781 20.621094 20.867188 21.175781 20.867188 21.863281 C 20.867188 22.546875 21.425781 23.105469 22.109375 23.105469 C 22.796875 23.105469 23.351562 22.546875 23.351562 21.863281 Z M 28.980469 19.777344 L 28.980469 20.988281 C 28.980469 21.210938 28.804688 21.386719 28.582031 21.386719 L 25.351562 21.386719 C 25.121094 19.804688 23.757812 18.582031 22.109375 18.582031 C 20.460938 18.582031 19.097656 19.804688 18.867188 21.386719 L 12.363281 21.386719 C 12.246094 20.589844 11.839844 19.882812 11.257812 19.378906 L 17.425781 19.378906 L 17.425781 7.964844 C 17.425781 7.523438 17.78125 7.167969 18.222656 7.167969 L 21.992188 7.167969 C 23.050781 7.167969 24.042969 7.695312 24.636719 8.574219 L 27.066406 12.171875 C 27.421875 12.699219 27.613281 13.320312 27.613281 13.957031 L 27.613281 19.378906 L 28.582031 19.378906 C 28.804688 19.378906 28.980469 19.558594 28.980469 19.777344 Z M 24.933594 12.261719 L 22.992188 9.503906 C 22.917969 9.394531 22.796875 9.332031 22.664062 9.332031 L 19.636719 9.332031 C 19.417969 9.332031 19.238281 9.511719 19.238281 9.730469 L 19.238281 12.492188 C 19.238281 12.710938 19.414062 12.890625 19.636719 12.890625 L 24.609375 12.890625 C 24.929688 12.890625 25.121094 12.527344 24.933594 12.261719 Z M 24.933594 12.261719 " fill-opacity="1" fill-rule="nonzero"/></g></svg>