<svg xmlns="http://www.w3.org/2000/svg" xmlns:xlink="http://www.w3.org/1999/xlink" width="40" zoomAndPan="magnify" viewBox="0 0 30 30.000001" height="40" preserveAspectRatio="xMidYMid meet" version="1.0"><defs><clipPath id="ccfb377df2"><path d="M 6.0625 0.46875 L 24 0.46875 L 24 28.777344 L 6.0625 28.777344 Z M 6.0625 0.46875 " clip-rule="nonzero"/></clipPath></defs><g clip-path="url(#ccfb377df2)"><path fill="#010020" d="M 15 0.46875 C 13.800781 0.46875 12.789062 1.417969 12.769531 2.601562 C 10.988281 2.929688 9.410156 3.601562 8.222656 4.574219 C 6.914062 5.648438 6.070312 7.113281 6.070312 8.761719 C 6.070312 10.214844 6.707031 11.378906 7.675781 12.199219 C 8.644531 13.015625 9.914062 13.53125 11.304688 13.941406 C 11.476562 14.015625 11.652344 14.011719 11.824219 13.929688 C 11.996094 13.847656 12.109375 13.71875 12.164062 13.535156 C 12.214844 13.351562 12.195312 13.179688 12.09375 13.019531 C 11.992188 12.855469 11.847656 12.757812 11.660156 12.726562 C 10.359375 12.34375 9.25 11.851562 8.503906 11.222656 C 7.757812 10.589844 7.347656 9.867188 7.347656 8.761719 C 7.347656 7.539062 7.945312 6.453125 9.03125 5.5625 C 9.984375 4.777344 11.3125 4.171875 12.847656 3.867188 L 14.363281 27.851562 L 14.363281 27.929688 C 14.363281 28.105469 14.429688 28.253906 14.550781 28.375 C 14.675781 28.5 14.824219 28.558594 15 28.558594 C 15.175781 28.558594 15.324219 28.5 15.449219 28.375 C 15.570312 28.253906 15.636719 28.105469 15.636719 27.929688 L 15.636719 27.851562 L 16.445312 15.109375 C 18.105469 15.457031 19.652344 15.84375 20.757812 16.402344 C 22.003906 17.03125 22.652344 17.730469 22.652344 18.964844 C 22.652344 19.609375 22.355469 20.226562 21.773438 20.796875 C 21.195312 21.367188 20.335938 21.867188 19.285156 22.183594 C 19.097656 22.214844 18.953125 22.3125 18.851562 22.472656 C 18.753906 22.636719 18.730469 22.808594 18.78125 22.992188 C 18.835938 23.171875 18.949219 23.304688 19.121094 23.386719 C 19.292969 23.46875 19.46875 23.472656 19.644531 23.398438 C 20.855469 23.035156 21.90625 22.464844 22.671875 21.714844 C 23.4375 20.960938 23.925781 20.003906 23.925781 18.964844 C 23.925781 17.226562 22.808594 16.007812 21.335938 15.265625 C 19.976562 14.582031 18.277344 14.175781 16.523438 13.8125 L 17.152344 3.925781 C 17.878906 4.117188 18.523438 4.394531 19.035156 4.734375 C 19.949219 5.34375 20.421875 6.085938 20.421875 6.847656 C 20.421875 7.695312 19.886719 8.554688 18.824219 9.167969 C 18.652344 9.246094 18.535156 9.375 18.476562 9.554688 C 18.421875 9.734375 18.4375 9.910156 18.535156 10.070312 C 18.628906 10.234375 18.769531 10.335938 18.957031 10.375 C 19.140625 10.414062 19.3125 10.378906 19.464844 10.265625 C 20.820312 9.480469 21.695312 8.230469 21.695312 6.847656 C 21.695312 5.558594 20.898438 4.445312 19.742188 3.679688 C 19.03125 3.207031 18.179688 2.84375 17.230469 2.621094 C 17.21875 1.429688 16.203125 0.46875 15 0.46875 Z M 15 1.746094 C 15.464844 1.746094 15.824219 2.039062 15.925781 2.421875 C 15.730469 2.40625 15.539062 2.390625 15.339844 2.382812 C 15.320312 2.382812 15.296875 2.382812 15.277344 2.382812 C 15.101562 2.386719 14.953125 2.449219 14.832031 2.578125 C 14.707031 2.703125 14.648438 2.855469 14.652344 3.03125 C 14.652344 3.207031 14.71875 3.355469 14.84375 3.480469 C 14.972656 3.601562 15.121094 3.660156 15.296875 3.660156 C 15.5 3.664062 15.691406 3.679688 15.886719 3.699219 L 15 17.746094 L 14.042969 2.640625 C 14.042969 2.640625 14.042969 2.636719 14.042969 2.632812 C 14.046875 2.152344 14.453125 1.746094 15 1.746094 Z M 15 1.746094 " fill-opacity="1" fill-rule="nonzero"/></g></svg>