<svg xmlns="http://www.w3.org/2000/svg" xmlns:xlink="http://www.w3.org/1999/xlink" width="40" zoomAndPan="magnify" viewBox="0 0 30 30.000001" height="40" preserveAspectRatio="xMidYMid meet" version="1.0"><defs><clipPath id="13223e012c"><path d="M 3.878906 0 L 26.378906 0 L 26.378906 29.03125 L 3.878906 29.03125 Z M 3.878906 0 " clip-rule="nonzero"/></clipPath></defs><g clip-path="url(#13223e012c)"><path fill="#010020" d="M 26.109375 15.089844 C 26.25 15.089844 26.378906 15.03125 26.472656 14.929688 C 26.566406 14.828125 26.613281 14.691406 26.601562 14.554688 L 26.324219 11.503906 C 25.996094 7.824219 22.960938 4.964844 19.289062 4.851562 C 19.207031 4.847656 19.125 4.84375 19.042969 4.84375 L 17.117188 4.84375 C 17.980469 4.160156 18.429688 3.035156 18.1875 1.871094 C 17.953125 0.734375 17.027344 -0.1875 15.890625 -0.425781 C 14.988281 -0.613281 14.070312 -0.394531 13.371094 0.175781 C 12.664062 0.75 12.261719 1.597656 12.261719 2.503906 C 12.261719 3.160156 12.796875 3.691406 13.453125 3.691406 C 14.109375 3.691406 14.640625 3.160156 14.640625 2.503906 C 14.640625 2.316406 14.726562 2.140625 14.867188 2.023438 C 15.015625 1.902344 15.203125 1.863281 15.402344 1.902344 C 15.625 1.953125 15.816406 2.136719 15.859375 2.355469 C 15.945312 2.773438 15.644531 3.042969 15.402344 3.101562 C 14.617188 3.292969 14.066406 4 14.066406 4.820312 L 14.066406 4.84375 L 11.4375 4.84375 C 11.355469 4.84375 11.273438 4.84375 11.210938 4.851562 C 11.207031 4.851562 11.203125 4.851562 11.199219 4.851562 C 11.195312 4.851562 11.191406 4.851562 11.1875 4.851562 C 7.507812 4.976562 4.484375 7.832031 4.15625 11.503906 L 3.878906 14.554688 C 3.867188 14.691406 3.914062 14.828125 4.007812 14.929688 C 4.101562 15.03125 4.230469 15.089844 4.371094 15.089844 L 7.792969 15.089844 C 7.898438 17.855469 7.894531 22.894531 6.945312 28.449219 C 6.921875 28.59375 6.960938 28.738281 7.054688 28.851562 C 7.148438 28.960938 7.285156 29.023438 7.433594 29.023438 L 23.046875 29.023438 C 23.191406 29.023438 23.332031 28.960938 23.425781 28.851562 C 23.515625 28.738281 23.558594 28.59375 23.535156 28.449219 C 22.628906 23.144531 22.566406 18.332031 22.691406 15.089844 Z M 17.605469 7.324219 C 17.589844 7.332031 17.574219 7.34375 17.558594 7.351562 C 17.371094 7.480469 17.171875 7.589844 16.964844 7.675781 C 16.953125 7.683594 16.9375 7.691406 16.925781 7.695312 C 16.53125 7.859375 16.09375 7.964844 15.644531 8.003906 C 15.65625 7.996094 15.667969 7.988281 15.675781 7.976562 C 15.695312 7.964844 15.714844 7.949219 15.734375 7.933594 C 15.765625 7.902344 15.800781 7.871094 15.835938 7.835938 C 15.855469 7.816406 15.875 7.800781 15.894531 7.78125 C 15.941406 7.730469 15.988281 7.675781 16.03125 7.613281 C 16.039062 7.605469 16.042969 7.601562 16.050781 7.59375 C 16.097656 7.523438 16.144531 7.449219 16.1875 7.367188 C 16.203125 7.339844 16.214844 7.3125 16.226562 7.285156 C 16.257812 7.222656 16.285156 7.160156 16.308594 7.089844 C 16.320312 7.054688 16.332031 7.019531 16.34375 6.984375 C 16.363281 6.910156 16.382812 6.832031 16.398438 6.753906 C 16.40625 6.714844 16.414062 6.679688 16.417969 6.640625 C 16.4375 6.519531 16.449219 6.394531 16.449219 6.253906 L 16.449219 5.828125 L 18.703125 5.828125 C 18.558594 6.398438 18.175781 6.925781 17.605469 7.324219 Z M 15.050781 4.820312 C 15.050781 4.453125 15.292969 4.140625 15.632812 4.058594 C 16.375 3.882812 17.019531 3.125 16.824219 2.15625 C 16.699219 1.554688 16.210938 1.066406 15.605469 0.941406 C 15.109375 0.839844 14.632812 0.953125 14.25 1.261719 C 13.871094 1.570312 13.65625 2.023438 13.65625 2.503906 C 13.65625 2.617188 13.570312 2.707031 13.453125 2.707031 C 13.339844 2.707031 13.246094 2.617188 13.246094 2.503906 C 13.246094 1.894531 13.519531 1.324219 13.992188 0.941406 C 14.460938 0.558594 15.078125 0.410156 15.6875 0.539062 C 16.449219 0.699219 17.066406 1.3125 17.226562 2.070312 C 17.441406 3.125 16.839844 4.144531 15.820312 4.4375 C 15.609375 4.5 15.464844 4.691406 15.464844 4.910156 L 15.464844 6.257812 C 15.464844 6.878906 15.183594 7.164062 14.941406 7.292969 L 13.949219 7.835938 C 13.777344 7.785156 13.605469 7.71875 13.445312 7.644531 L 14.742188 6.933594 C 14.761719 6.925781 14.773438 6.910156 14.789062 6.898438 C 14.804688 6.890625 14.824219 6.878906 14.839844 6.867188 C 14.855469 6.851562 14.867188 6.835938 14.882812 6.820312 C 14.894531 6.804688 14.90625 6.792969 14.917969 6.78125 C 14.929688 6.761719 14.941406 6.742188 14.953125 6.726562 C 14.957031 6.710938 14.96875 6.699219 14.972656 6.683594 C 14.984375 6.664062 14.992188 6.644531 14.996094 6.625 C 15.003906 6.609375 15.007812 6.597656 15.011719 6.585938 C 15.019531 6.5625 15.023438 6.542969 15.027344 6.523438 C 15.03125 6.511719 15.035156 6.496094 15.035156 6.484375 C 15.039062 6.464844 15.039062 6.449219 15.042969 6.429688 C 15.042969 6.417969 15.046875 6.40625 15.046875 6.394531 C 15.046875 6.375 15.050781 6.355469 15.050781 6.339844 C 15.050781 6.332031 15.050781 6.324219 15.050781 6.316406 C 15.050781 6.292969 15.050781 6.273438 15.050781 6.257812 Z M 14.070312 5.828125 L 14.070312 6.179688 L 12.515625 7.035156 C 12.136719 6.6875 11.886719 6.273438 11.777344 5.828125 Z M 5.136719 11.589844 C 5.40625 8.566406 7.792969 6.183594 10.789062 5.871094 C 10.9375 6.691406 11.414062 7.453125 12.160156 8.015625 C 12.160156 8.015625 12.160156 8.019531 12.160156 8.019531 C 12.160156 8.019531 12.164062 8.019531 12.164062 8.019531 C 12.65625 8.394531 13.25 8.675781 13.886719 8.835938 C 13.886719 8.835938 13.886719 8.835938 13.890625 8.835938 C 13.890625 8.835938 13.890625 8.839844 13.894531 8.839844 C 13.894531 8.839844 13.898438 8.839844 13.902344 8.839844 C 14.320312 8.949219 14.773438 9.007812 15.242188 9.007812 C 15.976562 9.007812 16.699219 8.863281 17.339844 8.589844 C 17.339844 8.589844 17.34375 8.585938 17.34375 8.585938 C 17.347656 8.585938 17.347656 8.585938 17.347656 8.585938 C 17.363281 8.578125 17.378906 8.570312 17.394531 8.5625 C 17.625 8.460938 17.847656 8.339844 18.058594 8.199219 C 18.089844 8.183594 18.117188 8.167969 18.140625 8.148438 C 18.992188 7.566406 19.535156 6.757812 19.695312 5.867188 C 22.679688 6.175781 25.074219 8.558594 25.347656 11.589844 L 25.574219 14.105469 L 22.742188 14.105469 C 22.796875 13.015625 22.867188 12.386719 22.867188 12.378906 C 22.898438 12.109375 22.703125 11.867188 22.433594 11.835938 C 22.164062 11.808594 21.921875 12 21.890625 12.269531 C 21.886719 12.304688 21.796875 13.128906 21.734375 14.5625 C 21.734375 14.5625 21.730469 14.5625 21.730469 14.566406 C 21.730469 14.566406 21.730469 14.570312 21.730469 14.574219 C 21.730469 14.582031 21.726562 14.585938 21.726562 14.59375 C 21.726562 14.597656 21.730469 14.601562 21.730469 14.605469 C 21.621094 16.972656 21.605469 20.273438 21.960938 24.042969 L 8.519531 24.042969 C 8.902344 19.980469 8.847656 16.542969 8.757812 14.574219 C 8.757812 14.570312 8.753906 14.570312 8.753906 14.566406 C 8.691406 13.128906 8.601562 12.304688 8.597656 12.269531 C 8.566406 12 8.328125 11.804688 8.054688 11.835938 C 7.785156 11.867188 7.589844 12.109375 7.621094 12.378906 C 7.621094 12.386719 7.6875 13.015625 7.746094 14.105469 L 4.910156 14.105469 Z M 8.011719 28.042969 C 8.175781 27.011719 8.308594 26.003906 8.417969 25.027344 L 22.0625 25.027344 C 22.171875 26.003906 22.304688 27.015625 22.46875 28.042969 Z M 8.011719 28.042969 " fill-opacity="1" fill-rule="nonzero"/></g></svg>