<svg xmlns="http://www.w3.org/2000/svg" xmlns:xlink="http://www.w3.org/1999/xlink" width="40" zoomAndPan="magnify" viewBox="0 0 30 30.000001" height="40" preserveAspectRatio="xMidYMid meet" version="1.0"><defs><clipPath id="95406967d0"><path d="M 0.484375 4.8125 L 29.515625 4.8125 L 29.515625 22.230469 L 0.484375 22.230469 Z M 0.484375 4.8125 " clip-rule="nonzero"/></clipPath></defs><path fill="#010020" d="M 23.121094 19.605469 L 6.878906 19.605469 C 6.765625 19.605469 6.652344 19.5625 6.566406 19.476562 L 5.914062 18.839844 C 5.816406 18.757812 5.753906 18.632812 5.753906 18.492188 C 5.753906 16.957031 4.449219 16.988281 4.277344 17 C 4.144531 17.015625 4.007812 16.976562 3.902344 16.875 L 3.226562 16.210938 C 3.125 16.128906 3.0625 16.003906 3.0625 15.867188 L 3.0625 11.136719 L 3.066406 11.136719 C 3.066406 11.019531 3.109375 10.898438 3.203125 10.8125 L 3.902344 10.125 L 3.90625 10.125 C 3.996094 10.039062 4.121094 9.988281 4.257812 10 C 4.261719 10 5.753906 10.152344 5.753906 8.507812 C 5.753906 8.390625 5.800781 8.273438 5.890625 8.183594 L 6.539062 7.546875 C 6.625 7.453125 6.746094 7.394531 6.878906 7.394531 L 23.121094 7.394531 L 23.121094 7.398438 C 23.238281 7.398438 23.351562 7.4375 23.4375 7.523438 L 24.089844 8.160156 C 24.1875 8.246094 24.25 8.367188 24.25 8.507812 C 24.25 10.042969 25.550781 10.011719 25.726562 10 C 25.859375 9.984375 25.996094 10.023438 26.097656 10.125 L 26.777344 10.789062 C 26.875 10.871094 26.9375 10.996094 26.9375 11.136719 L 26.9375 15.867188 C 26.9375 15.984375 26.890625 16.101562 26.800781 16.191406 L 26.097656 16.875 C 26.007812 16.964844 25.878906 17.015625 25.746094 17 C 25.738281 17 24.25 16.851562 24.25 18.492188 C 24.25 18.613281 24.203125 18.730469 24.113281 18.816406 L 23.460938 19.453125 C 23.378906 19.546875 23.257812 19.605469 23.121094 19.605469 Z M 15 18.699219 L 22.941406 18.699219 L 23.347656 18.300781 C 23.445312 16.320312 25.015625 16.105469 25.601562 16.09375 L 26.03125 15.675781 L 26.03125 11.324219 L 25.601562 10.90625 C 25.015625 10.894531 23.445312 10.683594 23.347656 8.703125 L 22.941406 8.300781 L 7.0625 8.300781 L 6.65625 8.703125 C 6.558594 10.683594 4.988281 10.894531 4.398438 10.90625 L 3.972656 11.324219 L 3.972656 15.675781 L 4.398438 16.09375 C 4.988281 16.105469 6.558594 16.320312 6.65625 18.300781 L 7.0625 18.699219 L 15 18.699219 " fill-opacity="1" fill-rule="nonzero"/><path fill="#010020" d="M 17.105469 11.398438 C 16.566406 10.859375 15.824219 10.527344 15 10.527344 C 14.179688 10.527344 13.4375 10.859375 12.898438 11.398438 C 12.359375 11.9375 12.027344 12.679688 12.027344 13.5 C 12.027344 14.320312 12.359375 15.066406 12.898438 15.601562 C 13.4375 16.140625 14.179688 16.476562 15 16.476562 C 15.824219 16.476562 16.566406 16.140625 17.105469 15.601562 C 17.640625 15.066406 17.976562 14.320312 17.976562 13.5 C 17.976562 12.679688 17.640625 11.9375 17.105469 11.398438 Z M 15 9.621094 C 16.074219 9.621094 17.042969 10.054688 17.746094 10.757812 C 18.449219 11.460938 18.882812 12.429688 18.882812 13.5 C 18.882812 14.574219 18.449219 15.542969 17.746094 16.246094 C 17.042969 16.949219 16.074219 17.382812 15 17.382812 C 13.929688 17.382812 12.960938 16.949219 12.257812 16.246094 C 11.554688 15.542969 11.121094 14.574219 11.121094 13.5 C 11.121094 12.429688 11.554688 11.460938 12.257812 10.757812 C 12.960938 10.054688 13.929688 9.621094 15 9.621094 " fill-opacity="1" fill-rule="nonzero"/><g clip-path="url(#95406967d0)"><path fill="#010020" d="M 28.613281 5.722656 L 1.390625 5.722656 L 1.390625 21.277344 L 28.613281 21.277344 Z M 0.9375 4.816406 L 29.066406 4.816406 C 29.316406 4.816406 29.519531 5.019531 29.519531 5.269531 L 29.519531 21.730469 C 29.519531 21.984375 29.316406 22.1875 29.066406 22.1875 L 0.9375 22.1875 C 0.6875 22.1875 0.484375 21.984375 0.484375 21.730469 L 0.484375 5.269531 C 0.484375 5.019531 0.6875 4.816406 0.9375 4.816406 " fill-opacity="1" fill-rule="nonzero"/></g></svg>