<svg xmlns="http://www.w3.org/2000/svg" xmlns:xlink="http://www.w3.org/1999/xlink" width="40" zoomAndPan="magnify" viewBox="0 0 30 30.000001" height="40" preserveAspectRatio="xMidYMid meet" version="1.0"><defs><clipPath id="63c8752ad6"><path d="M 0.9375 2.210938 L 29.242188 2.210938 L 29.242188 26.886719 L 0.9375 26.886719 Z M 0.9375 2.210938 " clip-rule="nonzero"/></clipPath></defs><g clip-path="url(#63c8752ad6)"><path fill="#010020" d="M 25.546875 13.417969 L 23.789062 13.417969 L 23.789062 11 C 23.789062 10.515625 23.394531 10.121094 22.910156 10.121094 L 17.636719 10.121094 C 17.152344 10.121094 16.757812 10.515625 16.757812 11 L 16.757812 13.417969 L 15.878906 13.417969 L 15.878906 11 C 15.878906 10.515625 15.484375 10.121094 15 10.121094 L 13.460938 10.121094 L 13.460938 8.230469 C 13.726562 8.078125 13.902344 7.792969 13.902344 7.484375 L 13.902344 6.164062 C 14.382812 6.164062 14.78125 5.769531 14.78125 5.285156 L 14.78125 3.089844 C 14.78125 2.605469 14.382812 2.210938 13.902344 2.210938 L 10.386719 2.210938 C 10.164062 2.210938 9.96875 2.296875 9.8125 2.429688 L 3.132812 2.429688 C 2.652344 2.429688 2.253906 2.824219 2.253906 3.308594 L 2.253906 10.363281 C 1.882812 10.449219 1.597656 10.800781 1.597656 11.21875 L 1.597656 13.417969 L 1.375 13.417969 C 1.132812 13.417969 0.9375 13.613281 0.9375 13.855469 C 0.9375 14.097656 1.132812 14.296875 1.375 14.296875 L 25.546875 14.296875 C 26.996094 14.296875 28.183594 15.480469 28.183594 16.933594 C 28.183594 18.382812 26.996094 19.570312 25.546875 19.570312 L 1.375 19.570312 C 1.132812 19.570312 0.9375 19.765625 0.9375 20.007812 C 0.9375 20.25 1.132812 20.449219 1.375 20.449219 L 2.476562 20.449219 L 2.476562 26.378906 C 2.476562 26.621094 2.671875 26.820312 2.914062 26.820312 C 3.15625 26.820312 3.355469 26.621094 3.355469 26.378906 L 3.355469 24.621094 L 25.328125 24.621094 L 25.328125 26.378906 C 25.328125 26.621094 25.523438 26.820312 25.765625 26.820312 C 26.007812 26.820312 26.207031 26.621094 26.207031 26.378906 L 26.207031 20.382812 C 27.832031 20.074219 29.0625 18.644531 29.0625 16.933594 C 29.0625 15 27.480469 13.417969 25.546875 13.417969 Z M 10.386719 3.089844 L 13.902344 3.089844 L 13.902344 5.285156 L 10.386719 5.285156 Z M 11.265625 7.484375 L 11.265625 6.164062 L 13.023438 6.164062 L 13.023438 7.484375 Z M 12.582031 8.363281 L 12.582031 10.121094 L 11.703125 10.121094 L 11.703125 8.363281 Z M 3.132812 3.308594 L 9.507812 3.308594 L 9.507812 5.066406 L 4.890625 5.066406 L 4.890625 10.339844 L 3.132812 10.339844 Z M 5.550781 13.417969 L 2.476562 13.417969 L 2.476562 11.21875 L 5.550781 11.21875 Z M 8.847656 11 L 8.847656 13.417969 L 6.429688 13.417969 L 6.429688 11.21875 C 6.429688 10.800781 6.144531 10.472656 5.769531 10.363281 L 5.769531 5.945312 L 9.8125 5.945312 C 9.96875 6.078125 10.164062 6.164062 10.386719 6.164062 L 10.386719 7.484375 C 10.386719 7.8125 10.5625 8.097656 10.824219 8.230469 L 10.824219 10.121094 L 9.726562 10.121094 C 9.242188 10.121094 8.847656 10.515625 8.847656 11 Z M 15 13.417969 L 9.726562 13.417969 L 9.726562 11 L 15 11 Z M 22.910156 13.417969 L 17.636719 13.417969 L 17.636719 11 L 22.910156 11 Z M 25.328125 23.742188 L 3.355469 23.742188 L 3.355469 20.449219 L 25.328125 20.449219 Z M 25.328125 23.742188 " fill-opacity="1" fill-rule="nonzero"/></g><path fill="#010020" d="M 27.304688 16.933594 C 27.304688 15.964844 26.511719 15.175781 25.546875 15.175781 C 24.578125 15.175781 23.789062 15.964844 23.789062 16.933594 C 23.789062 17.898438 24.578125 18.691406 25.546875 18.691406 C 26.511719 18.691406 27.304688 17.898438 27.304688 16.933594 Z M 24.667969 16.933594 C 24.667969 16.449219 25.0625 16.054688 25.546875 16.054688 C 26.03125 16.054688 26.425781 16.449219 26.425781 16.933594 C 26.425781 17.414062 26.03125 17.8125 25.546875 17.8125 C 25.0625 17.8125 24.667969 17.414062 24.667969 16.933594 Z M 24.667969 16.933594 " fill-opacity="1" fill-rule="nonzero"/><path fill="#010020" d="M 22.910156 16.933594 C 22.910156 16.074219 22.226562 15.394531 21.371094 15.394531 C 20.515625 15.394531 19.832031 16.074219 19.832031 16.933594 C 19.832031 17.789062 20.515625 18.46875 21.371094 18.46875 C 22.226562 18.46875 22.910156 17.789062 22.910156 16.933594 Z M 20.710938 16.933594 C 20.710938 16.558594 20.996094 16.273438 21.371094 16.273438 C 21.746094 16.273438 22.03125 16.558594 22.03125 16.933594 C 22.03125 17.304688 21.746094 17.589844 21.371094 17.589844 C 20.996094 17.589844 20.710938 17.304688 20.710938 16.933594 Z M 20.710938 16.933594 " fill-opacity="1" fill-rule="nonzero"/><path fill="#010020" d="M 18.953125 16.933594 C 18.953125 16.074219 18.273438 15.394531 17.417969 15.394531 C 16.558594 15.394531 15.878906 16.074219 15.878906 16.933594 C 15.878906 17.789062 16.558594 18.46875 17.417969 18.46875 C 18.273438 18.46875 18.953125 17.789062 18.953125 16.933594 Z M 16.757812 16.933594 C 16.757812 16.558594 17.042969 16.273438 17.417969 16.273438 C 17.789062 16.273438 18.074219 16.558594 18.074219 16.933594 C 18.074219 17.304688 17.789062 17.589844 17.417969 17.589844 C 17.042969 17.589844 16.757812 17.304688 16.757812 16.933594 Z M 16.757812 16.933594 " fill-opacity="1" fill-rule="nonzero"/><path fill="#010020" d="M 15 16.933594 C 15 16.074219 14.316406 15.394531 13.460938 15.394531 C 12.605469 15.394531 11.921875 16.074219 11.921875 16.933594 C 11.921875 17.789062 12.605469 18.46875 13.460938 18.46875 C 14.316406 18.46875 15 17.789062 15 16.933594 Z M 12.800781 16.933594 C 12.800781 16.558594 13.085938 16.273438 13.460938 16.273438 C 13.835938 16.273438 14.121094 16.558594 14.121094 16.933594 C 14.121094 17.304688 13.835938 17.589844 13.460938 17.589844 C 13.085938 17.589844 12.800781 17.304688 12.800781 16.933594 Z M 12.800781 16.933594 " fill-opacity="1" fill-rule="nonzero"/><path fill="#010020" d="M 11.042969 16.933594 C 11.042969 16.074219 10.363281 15.394531 9.507812 15.394531 C 8.648438 15.394531 7.96875 16.074219 7.96875 16.933594 C 7.96875 17.789062 8.648438 18.46875 9.507812 18.46875 C 10.363281 18.46875 11.042969 17.789062 11.042969 16.933594 Z M 8.847656 16.933594 C 8.847656 16.558594 9.132812 16.273438 9.507812 16.273438 C 9.878906 16.273438 10.164062 16.558594 10.164062 16.933594 C 10.164062 17.304688 9.878906 17.589844 9.507812 17.589844 C 9.132812 17.589844 8.847656 17.304688 8.847656 16.933594 Z M 8.847656 16.933594 " fill-opacity="1" fill-rule="nonzero"/><path fill="#010020" d="M 7.089844 16.933594 C 7.089844 16.074219 6.40625 15.394531 5.550781 15.394531 C 4.695312 15.394531 4.011719 16.074219 4.011719 16.933594 C 4.011719 17.789062 4.695312 18.46875 5.550781 18.46875 C 6.40625 18.46875 7.089844 17.789062 7.089844 16.933594 Z M 4.890625 16.933594 C 4.890625 16.558594 5.175781 16.273438 5.550781 16.273438 C 5.925781 16.273438 6.210938 16.558594 6.210938 16.933594 C 6.210938 17.304688 5.925781 17.589844 5.550781 17.589844 C 5.175781 17.589844 4.890625 17.304688 4.890625 16.933594 Z M 4.890625 16.933594 " fill-opacity="1" fill-rule="nonzero"/></svg>