<svg xmlns="http://www.w3.org/2000/svg" xmlns:xlink="http://www.w3.org/1999/xlink" width="40" zoomAndPan="magnify" viewBox="0 0 30 30.000001" height="40" preserveAspectRatio="xMidYMid meet" version="1.0"><defs><clipPath id="c1e1351317"><path d="M 0.484375 3 L 29.515625 3 L 29.515625 26 L 0.484375 26 Z M 0.484375 3 " clip-rule="nonzero"/></clipPath><clipPath id="7dced4763f"><path d="M 0.484375 2.832031 L 29.515625 2.832031 L 29.515625 26.054688 L 0.484375 26.054688 Z M 0.484375 2.832031 " clip-rule="nonzero"/></clipPath></defs><g clip-path="url(#c1e1351317)"><path fill="#010020" d="M 8.34375 3.183594 C 8.230469 3.1875 8.117188 3.21875 8.011719 3.277344 L 1.285156 7.164062 C 0.949219 7.355469 0.835938 7.78125 1.027344 8.121094 L 3.320312 12.089844 C 3.515625 12.425781 3.941406 12.539062 4.277344 12.347656 L 7.792969 10.316406 L 7.792969 25.152344 C 7.792969 25.542969 8.109375 25.855469 8.496094 25.855469 L 21.484375 25.855469 C 21.875 25.855469 22.1875 25.542969 22.1875 25.152344 L 22.1875 10.296875 L 25.738281 12.347656 C 26.074219 12.539062 26.5 12.425781 26.695312 12.089844 L 28.988281 8.121094 C 29.183594 7.785156 29.066406 7.355469 28.730469 7.164062 L 22.003906 3.277344 C 21.867188 3.199219 21.714844 3.171875 21.570312 3.1875 C 21.542969 3.183594 21.515625 3.183594 21.484375 3.183594 L 17.765625 3.183594 C 17.710938 3.625 16.496094 3.980469 15.007812 3.980469 C 13.519531 3.980469 12.308594 3.625 12.25 3.183594 L 8.496094 3.183594 C 8.472656 3.183594 8.449219 3.1875 8.429688 3.1875 C 8.402344 3.183594 8.375 3.183594 8.34375 3.183594 Z M 8.34375 3.183594 " fill-opacity="1" fill-rule="nonzero"/></g><g clip-path="url(#7dced4763f)"><path stroke-linecap="butt" transform="matrix(0.134908, 0, 0, 0.134908, -61.850491, -25.152785)" fill="none" stroke-linejoin="miter" d="M 520.310926 210.041837 C 519.471235 210.070792 518.631544 210.302431 517.849763 210.736754 L 467.989491 239.546842 C 465.499373 240.96563 464.659682 244.12171 466.07847 246.640783 L 483.074974 276.058922 C 484.522717 278.54904 487.678797 279.388731 490.168915 277.969943 L 516.228291 262.913415 L 516.228291 372.88398 C 516.228291 375.779466 518.573634 378.095855 521.440166 378.095855 L 617.715081 378.095855 C 620.610567 378.095855 622.926956 375.779466 622.926956 372.88398 L 622.926956 262.768641 L 649.246926 277.969943 C 651.737044 279.388731 654.893124 278.54904 656.340867 276.058922 L 673.337371 246.640783 C 674.785114 244.150665 673.916468 240.96563 671.42635 239.546842 L 621.566078 210.736754 C 620.552658 210.157657 619.423418 209.954973 618.352088 210.070792 C 618.149404 210.041837 617.94672 210.041837 617.715081 210.041837 L 590.150053 210.041837 C 589.744685 213.313737 580.739723 215.948629 569.70792 215.948629 C 558.676118 215.948629 549.700111 213.313737 549.265788 210.041837 L 521.440166 210.041837 C 521.266437 210.041837 521.092707 210.070792 520.947933 210.070792 C 520.745249 210.041837 520.542565 210.041837 520.310926 210.041837 Z M 520.310926 210.041837 " stroke="#000000" stroke-width="4.468" stroke-opacity="1" stroke-miterlimit="4"/></g></svg>