<!--?xml version="1.0" standalone="no"?-->
              <svg id="sw-js-blob-svg" viewBox="0 0 100 100" xmlns="http://www.w3.org/2000/svg" version="1.1">
                    <defs> 
                        <linearGradient id="sw-gradient" x1="0" x2="1" y1="1" y2="0">
                            <stop id="stop1" stop-color="rgba(223, 149, 115, 1)" offset="0%"></stop>
                            <stop id="stop2" stop-color="rgba(255, 244, 241, 1)" offset="100%"></stop>
                        </linearGradient>
                    </defs>
                <path fill="url(#sw-gradient)" d="M21,-27.6C28.6,-23.4,37.1,-19.1,41,-12.1C45,-5.1,44.3,4.5,39.5,10.8C34.6,17,25.6,19.9,18.3,24.7C11,29.5,5.5,36.2,-1.1,37.7C-7.7,39.2,-15.4,35.5,-20,29.8C-24.6,24.2,-26.1,16.6,-27.2,9.6C-28.4,2.7,-29.3,-3.5,-28.3,-10.1C-27.4,-16.6,-24.7,-23.5,-19.7,-28.5C-14.7,-33.5,-7.4,-36.7,-0.3,-36.3C6.7,-35.8,13.4,-31.7,21,-27.6Z" width="100%" height="100%" transform="translate(50 50)" stroke-width="0" style="transition: all 0.3s ease 0s;" stroke="url(#sw-gradient)"></path>
              </svg>