<!--?xml version="1.0" standalone="no"?-->
              <svg id="sw-js-blob-svg" viewBox="0 0 100 100" xmlns="http://www.w3.org/2000/svg" version="1.1">
                    <defs> 
                        <linearGradient id="sw-gradient" x1="0" x2="1" y1="1" y2="0">
                            <stop id="stop1" stop-color="rgba(223, 149, 115, 1)" offset="0%"></stop>
                            <stop id="stop2" stop-color="rgba(255, 244, 241, 1)" offset="100%"></stop>
                        </linearGradient>
                    </defs>
                <path fill="url(#sw-gradient)" d="M26.2,-35.3C33.6,-30.6,39.2,-22.6,40.7,-14.1C42.2,-5.7,39.5,3.1,35.2,9.8C30.8,16.5,24.7,21,18.5,23.1C12.4,25.1,6.2,24.7,-1.5,26.8C-9.2,28.9,-18.5,33.5,-24.3,31.4C-30,29.2,-32.3,20.2,-35.5,11.4C-38.6,2.5,-42.4,-6.3,-41.2,-14.4C-40,-22.6,-33.7,-30.2,-26,-34.8C-18.3,-39.4,-9.1,-41.2,0.1,-41.3C9.3,-41.4,18.7,-40,26.2,-35.3Z" width="100%" height="100%" transform="translate(50 50)" stroke-width="0" style="transition: all 0.3s ease 0s;" stroke="url(#sw-gradient)"></path>
              </svg>