<!--?xml version="1.0" standalone="no"?-->
              <svg id="sw-js-blob-svg" viewBox="0 0 100 100" xmlns="http://www.w3.org/2000/svg" version="1.1">
                    <defs> 
                        <linearGradient id="sw-gradient" x1="0" x2="1" y1="1" y2="0">
                            <stop id="stop1" stop-color="rgba(223, 149, 115, 1)" offset="0%"></stop>
                            <stop id="stop2" stop-color="rgba(255, 244, 241, 1)" offset="100%"></stop>
                        </linearGradient>
                    </defs>
                <path fill="url(#sw-gradient)" d="M14.1,-21.8C20.5,-20.6,29.7,-21.5,34.6,-18.2C39.6,-14.9,40.3,-7.5,40.8,0.3C41.3,8,41.6,16.1,37.1,20.2C32.6,24.2,23.4,24.4,16.4,27.6C9.4,30.8,4.7,37.2,-1.2,39.3C-7.1,41.3,-14.2,39.1,-18.3,34.3C-22.5,29.4,-23.6,21.9,-24.7,15.7C-25.7,9.6,-26.7,4.8,-26.5,0.1C-26.4,-4.6,-25.2,-9.3,-23.5,-14.2C-21.7,-19.1,-19.4,-24.3,-15.4,-26.9C-11.4,-29.6,-5.7,-29.6,-0.9,-28C3.8,-26.4,7.6,-23,14.1,-21.8Z" width="100%" height="100%" transform="translate(50 50)" stroke-width="0" style="transition: all 0.3s ease 0s;" stroke="url(#sw-gradient)"></path>
              </svg>