<!--?xml version="1.0" standalone="no"?-->
              <svg id="sw-js-blob-svg" viewBox="0 0 100 100" xmlns="http://www.w3.org/2000/svg" version="1.1">
                    <defs> 
                        <linearGradient id="sw-gradient" x1="0" x2="1" y1="1" y2="0">
                            <stop id="stop1" stop-color="rgba(223, 149, 115, 1)" offset="0%"></stop>
                            <stop id="stop2" stop-color="rgba(255, 244, 241, 1)" offset="100%"></stop>
                        </linearGradient>
                    </defs>
                <path fill="url(#sw-gradient)" d="M19.6,-33.9C23.9,-31.5,24.9,-23.2,28.6,-16.6C32.3,-10,38.6,-5,37.7,-0.5C36.8,3.9,28.6,7.8,24.7,14.1C20.8,20.4,21.2,29,17.9,34.3C14.5,39.7,7.2,41.7,1.3,39.5C-4.7,37.3,-9.3,30.8,-16.4,27.5C-23.4,24.3,-32.8,24.3,-38.7,20.3C-44.7,16.2,-47.1,8.1,-44.5,1.5C-41.9,-5.1,-34.2,-10.2,-28.2,-14.1C-22.2,-18.1,-17.9,-20.8,-13.5,-23.1C-9,-25.4,-4.5,-27.3,1.6,-30C7.7,-32.7,15.3,-36.2,19.6,-33.9Z" width="100%" height="100%" transform="translate(50 50)" stroke-width="0" style="transition: all 0.3s ease 0s;" stroke="url(#sw-gradient)"></path>
              </svg>