<!--?xml version="1.0" standalone="no"?-->
              <svg id="sw-js-blob-svg" viewBox="0 0 100 100" xmlns="http://www.w3.org/2000/svg" version="1.1">
                    <defs> 
                        <linearGradient id="sw-gradient" x1="0" x2="1" y1="1" y2="0">
                            <stop id="stop1" stop-color="rgba(223, 149, 115, 1)" offset="0%"></stop>
                            <stop id="stop2" stop-color="rgba(255, 244, 241, 1)" offset="100%"></stop>
                        </linearGradient>
                    </defs>
                <path fill="url(#sw-gradient)" d="M19.8,-29C24.5,-23.9,26.2,-16.5,30.4,-8.7C34.5,-0.9,41,7.3,39.2,12.7C37.3,18.1,27.2,20.7,19.2,23.8C11.3,26.8,5.7,30.3,-0.7,31.3C-7,32.2,-14.1,30.7,-18.1,26.3C-22.1,22,-23.1,14.9,-25.1,8.3C-27,1.7,-29.9,-4.5,-29.1,-10.2C-28.3,-16,-23.8,-21.3,-18.4,-26.1C-12.9,-31,-6.5,-35.3,0.6,-36.1C7.6,-36.9,15.2,-34.1,19.8,-29Z" width="100%" height="100%" transform="translate(50 50)" stroke-width="0" style="transition: all 0.3s ease 0s;" stroke="url(#sw-gradient)"></path>
              </svg>