<!--?xml version="1.0" standalone="no"?-->
              <svg id="sw-js-blob-svg" viewBox="0 0 100 100" xmlns="http://www.w3.org/2000/svg" version="1.1">
                    <defs> 
                        <linearGradient id="sw-gradient" x1="0" x2="1" y1="1" y2="0">
                            <stop id="stop1" stop-color="rgba(223, 149, 115, 1)" offset="0%"></stop>
                            <stop id="stop2" stop-color="rgba(255, 244, 241, 1)" offset="100%"></stop>
                        </linearGradient>
                    </defs>
                <path fill="url(#sw-gradient)" d="M18.1,-30.5C25,-27.3,33.4,-25.7,38.6,-20.9C43.9,-16.1,45.9,-8,44.4,-0.9C42.8,6.2,37.5,12.4,32.2,17.1C26.9,21.8,21.5,24.9,16.2,28.8C10.8,32.8,5.4,37.5,-0.9,39C-7.2,40.6,-14.4,39,-18.7,34.5C-22.9,29.9,-24.2,22.3,-26.6,16.1C-29,9.8,-32.5,4.9,-33.6,-0.7C-34.8,-6.2,-33.6,-12.5,-30.7,-17.8C-27.8,-23.1,-23.1,-27.6,-17.7,-31.7C-12.3,-35.7,-6.2,-39.5,-0.3,-39C5.6,-38.5,11.1,-33.7,18.1,-30.5Z" width="100%" height="100%" transform="translate(50 50)" stroke-width="0" style="transition: all 0.3s ease 0s;"></path>
              </svg>